<svg width="60" height="60" viewBox="0 0 60 60" fill="none" xmlns="http://www.w3.org/2000/svg">
<path d="M30 20V30M50 25.4125C50 41.8325 37.58 49.195 32.315 51.5775L32.3075 51.5825C31.755 51.8325 31.4775 51.9575 30.8475 52.065C30.4475 52.135 29.5525 52.135 29.155 52.065C28.6427 51.9798 28.1467 51.8154 27.685 51.5775C22.42 49.195 10 41.8325 10 25.4125V15.5C10 12.7 10 11.3 10.545 10.23C11.025 9.2875 11.7875 8.525 12.73 8.045C13.8 7.5 15.2 7.5 18 7.5H42C44.8 7.5 46.2 7.5 47.2675 8.045C48.21 8.525 48.975 9.2875 49.455 10.23C50 11.2975 50 12.6975 50 15.4925V25.4125ZM30.125 37.5V37.75H29.875V37.5H30.125Z" stroke="black" stroke-width="5" stroke-linecap="round" stroke-linejoin="round"/>
</svg>
