<svg width="61" height="60" viewBox="0 0 61 60" fill="none" xmlns="http://www.w3.org/2000/svg">
<path d="M7.83337 30C7.83337 32.9547 8.41535 35.8806 9.54608 38.6104C10.6768 41.3402 12.3342 43.8206 14.4235 45.9099C16.5128 47.9992 18.9932 49.6566 21.723 50.7873C24.4528 51.918 27.3786 52.5 30.3334 52.5C33.2881 52.5 36.2139 51.918 38.9438 50.7873C41.6736 49.6566 44.154 47.9992 46.2433 45.9099C48.3326 43.8206 49.9899 41.3402 51.1207 38.6104C52.2514 35.8806 52.8334 32.9547 52.8334 30C52.8334 24.0326 50.4628 18.3097 46.2433 14.0901C42.0237 9.87053 36.3007 7.5 30.3334 7.5C24.366 7.5 18.643 9.87053 14.4235 14.0901C10.2039 18.3097 7.83337 24.0326 7.83337 30Z" stroke="black" stroke-width="4" stroke-linecap="round" stroke-linejoin="round"/>
<path d="M26.5834 26.25L40.3334 20L34.0834 33.75L20.3334 40L26.5834 26.25Z" stroke="black" stroke-width="4" stroke-linecap="round" stroke-linejoin="round"/>
</svg>
