<svg width="61" height="60" viewBox="0 0 61 60" fill="none" xmlns="http://www.w3.org/2000/svg">
<path d="M40.6666 22.5L27.3341 37.5L20.6666 30M8.16663 44.5V15.5C8.16663 12.7 8.16663 11.3 8.71163 10.23C9.19163 9.2875 9.95413 8.525 10.8966 8.045C11.9666 7.5 13.3666 7.5 16.1666 7.5H45.1666C47.9666 7.5 49.3666 7.5 50.4341 8.045C51.3766 8.525 52.1416 9.2875 52.6216 10.23C53.1666 11.2975 53.1666 12.6975 53.1666 15.4925V44.51C53.1666 47.305 53.1666 48.7025 52.6216 49.77C52.1416 50.7112 51.3758 51.4761 50.4341 51.955C49.3666 52.5 47.9691 52.5 45.1741 52.5H16.1591C13.3641 52.5 11.9641 52.5 10.8966 51.955C9.95586 51.4756 9.19099 50.7108 8.71163 49.77C8.16663 48.7 8.16663 47.3 8.16663 44.5Z" stroke="black" stroke-width="5" stroke-linecap="round" stroke-linejoin="round"/>
</svg>
