<svg width="61" height="60" viewBox="0 0 61 60" fill="none" xmlns="http://www.w3.org/2000/svg">
<path d="M42.8334 50C42.8334 45.8575 37.2359 42.5 30.3334 42.5C23.4309 42.5 17.8334 45.8575 17.8334 50M52.8334 42.5C52.8334 39.425 49.7484 36.7825 45.3334 35.625M7.83337 42.5C7.83337 39.425 10.9184 36.7825 15.3334 35.625M45.3334 25.59C46.074 24.9352 46.6779 24.1405 47.1103 23.2515C47.5428 22.3625 47.7951 21.3968 47.853 20.4099C47.9109 19.423 47.7731 18.4344 47.4475 17.501C47.1219 16.5676 46.615 15.7077 45.956 14.9709C45.2969 14.234 44.4987 13.6348 43.6072 13.2075C42.7157 12.7803 41.7485 12.5335 40.7613 12.4814C39.7741 12.4293 38.7863 12.5728 37.8548 12.9038C36.9233 13.2348 36.0664 13.7467 35.3334 14.41M15.3334 25.59C13.8641 24.2604 12.9808 22.4033 12.8763 20.4245C12.7718 18.4457 13.4547 16.5059 14.7758 15.029C16.0968 13.552 17.9487 12.6579 19.9269 12.5419C21.9051 12.4259 23.8488 13.0975 25.3334 14.41M30.3334 35C29.3485 35 28.3732 34.806 27.4632 34.4291C26.5533 34.0522 25.7265 33.4997 25.0301 32.8033C24.3336 32.1069 23.7812 31.2801 23.4043 30.3701C23.0274 29.4602 22.8334 28.4849 22.8334 27.5C22.8334 26.5151 23.0274 25.5398 23.4043 24.6299C23.7812 23.7199 24.3336 22.8931 25.0301 22.1967C25.7265 21.5003 26.5533 20.9478 27.4632 20.5709C28.3732 20.194 29.3485 20 30.3334 20C32.3225 20 34.2302 20.7902 35.6367 22.1967C37.0432 23.6032 37.8334 25.5109 37.8334 27.5C37.8334 29.4891 37.0432 31.3968 35.6367 32.8033C34.2302 34.2098 32.3225 35 30.3334 35Z" stroke="black" stroke-width="4" stroke-linecap="round" stroke-linejoin="round"/>
</svg>
