<svg width="51" height="42" viewBox="0 0 51 42" fill="none" xmlns="http://www.w3.org/2000/svg">
<path d="M10.1842 8.30309C12.2924 8.30309 14.0028 6.59694 14.0028 4.49402C14.0028 2.39109 12.2924 0.684944 10.1842 0.684944C8.07598 0.684944 6.36556 2.39109 6.36556 4.49402C6.36556 6.59694 8.07598 8.30309 10.1842 8.30309ZM40.7331 8.30309C42.8413 8.30309 44.5517 6.59694 44.5517 4.49402C44.5517 2.39109 42.8413 0.684944 40.7331 0.684944C38.6249 0.684944 36.9145 2.39109 36.9145 4.49402C36.9145 6.59694 38.6249 8.30309 40.7331 8.30309ZM50.7331 37.8313L47.2327 29.1022L43.963 32.7843L43.8039 34.2286L46.0076 39.72C46.4054 40.7119 47.36 41.3151 48.3704 41.3151C48.6886 41.3151 49.0068 41.2595 49.3171 41.1325C50.6218 40.6088 51.2582 39.1328 50.7331 37.8313ZM48.0124 21.1825L46.5406 14.8182C46.1747 13.2311 45.0609 11.8979 43.5573 11.2551C42.0855 10.6203 40.4547 10.7234 39.0943 11.517C37.2884 12.5804 35.936 14.2548 35.2677 16.2307L34.3688 18.9209L33.0959 19.7303V12.1122C33.0959 11.4138 32.5231 10.8425 31.823 10.8425H19.0943C18.3942 10.8425 17.8214 11.4138 17.8214 12.1122V19.7303L16.5406 18.9209L15.6416 16.2307C14.9813 14.2468 13.6209 12.5804 11.815 11.517C10.4467 10.7234 8.82379 10.6203 7.35203 11.2551C5.84845 11.8979 4.73469 13.2311 4.36874 14.8182L2.90493 21.1825C2.53898 22.7696 2.96062 24.452 4.05052 25.682L9.39658 31.7051L10.2001 39.0534C10.3433 40.3469 11.4411 41.3151 12.7299 41.3151C12.8254 41.3151 12.9129 41.3071 13.0084 41.2992C14.4085 41.1484 15.4109 39.8946 15.2598 38.4979L14.4563 31.1337C14.3369 30.1021 13.9073 29.1419 13.2152 28.3563L9.77049 24.4678L11.1707 18.8891L11.7116 20.508C12.0378 21.4999 12.6583 22.3649 13.6607 23.095L17.7259 25.674C18.0919 25.9042 18.6886 26.0391 19.0943 26.0708H31.823C32.2287 26.0391 32.8254 25.9042 33.1914 25.674L37.2566 23.095C38.259 22.3649 38.8795 21.5079 39.2057 20.508L39.7466 18.8891L41.1468 24.4678L37.7021 28.3563C37.01 29.1419 36.5804 30.1021 36.461 31.1337L35.6575 38.4979C35.5064 39.8946 36.5167 41.1484 37.9089 41.2992C38.0044 41.3071 38.0919 41.3151 38.1874 41.3151C39.4682 41.3151 40.574 40.3548 40.7172 39.0534L41.5207 31.7051L46.8668 25.682C47.9487 24.452 48.3783 22.7696 48.0124 21.1825ZM3.68457 29.1022L0.184167 37.8313C-0.340893 39.1328 0.295543 40.6088 1.60024 41.1325C2.93675 41.6563 4.3926 40.9976 4.90971 39.72L7.11337 34.2286L6.95426 32.7843L3.68457 29.1022Z" fill="black"/>
</svg>
