<svg width="61" height="60" viewBox="0 0 61 60" fill="none" xmlns="http://www.w3.org/2000/svg">
<path d="M10.6666 50H50.6666M10.6666 50V40L30.6666 20L37.8391 12.8275L37.8416 12.825C38.8291 11.8375 39.3241 11.3425 39.8941 11.1575C40.3962 10.9944 40.937 10.9944 41.4391 11.1575C42.0091 11.3425 42.5016 11.8375 43.4891 12.8225L47.8391 17.1725C48.8291 18.1625 49.3241 18.6575 49.5091 19.2275C49.6723 19.7296 49.6723 20.2704 49.5091 20.7725C49.3241 21.3425 48.8291 21.8375 47.8391 22.8275L40.6666 30.0025L30.6666 20.0025M10.6666 50H20.6666L40.6666 30" stroke="black" stroke-width="4" stroke-linecap="round" stroke-linejoin="round"/>
</svg>
