<svg width="236" height="40" viewBox="0 0 236 40" fill="none" xmlns="http://www.w3.org/2000/svg">
<path d="M17.985 5.25489C18.1708 4.87849 18.4583 4.56158 18.8148 4.33999C19.1713 4.11841 19.5827 4.00098 20.0025 4.00098C20.4223 4.00098 20.8337 4.11841 21.1902 4.33999C21.5467 4.56158 21.8342 4.87849 22.02 5.25489L25.8225 12.9599L34.325 14.1949C34.7407 14.2548 35.1312 14.4299 35.4526 14.7003C35.7739 14.9707 36.0131 15.3257 36.1432 15.725C36.2732 16.1243 36.289 16.552 36.1885 16.9598C36.0881 17.3676 35.8756 17.7391 35.575 18.0324L29.42 24.0324L30.8725 32.4999C30.9431 32.9136 30.8966 33.3388 30.7382 33.7274C30.5798 34.1161 30.3159 34.4527 29.9763 34.6992C29.6367 34.9458 29.2348 35.0924 28.8162 35.1225C28.3977 35.1527 27.979 35.0652 27.6075 34.8699L20.0025 30.8749L12.3975 34.8749C12.0256 35.0706 11.6064 35.1583 11.1872 35.128C10.7681 35.0977 10.3658 34.9506 10.0259 34.7034C9.6861 34.4562 9.42228 34.1188 9.26437 33.7293C9.10647 33.3399 9.06079 32.914 9.1325 32.4999L10.5825 24.0324L4.4325 18.0349C4.13194 17.7418 3.91938 17.3705 3.81884 16.9629C3.71831 16.5553 3.73381 16.1277 3.8636 15.7284C3.99338 15.3292 4.23228 14.9742 4.55327 14.7036C4.87426 14.4331 5.26455 14.2577 5.68 14.1974L14.18 12.9624L17.985 5.25489Z" fill="url(#paint0_linear_1_106)"/>
<path d="M66.985 5.25489C67.1708 4.87849 67.4583 4.56158 67.8148 4.33999C68.1713 4.11841 68.5827 4.00098 69.0025 4.00098C69.4223 4.00098 69.8337 4.11841 70.1902 4.33999C70.5467 4.56158 70.8342 4.87849 71.02 5.25489L74.8225 12.9599L83.325 14.1949C83.7407 14.2548 84.1312 14.4299 84.4526 14.7003C84.7739 14.9707 85.0131 15.3257 85.1432 15.725C85.2732 16.1243 85.289 16.552 85.1885 16.9598C85.0881 17.3676 84.8756 17.7391 84.575 18.0324L78.42 24.0324L79.8725 32.4999C79.9431 32.9136 79.8966 33.3388 79.7382 33.7274C79.5798 34.1161 79.3159 34.4527 78.9763 34.6992C78.6367 34.9458 78.2348 35.0924 77.8162 35.1225C77.3977 35.1527 76.979 35.0652 76.6075 34.8699L69.0025 30.8749L61.3975 34.8749C61.0256 35.0706 60.6064 35.1583 60.1872 35.128C59.7681 35.0977 59.3658 34.9506 59.0259 34.7034C58.6861 34.4562 58.4223 34.1188 58.2644 33.7293C58.1065 33.3399 58.0608 32.914 58.1325 32.4999L59.5825 24.0324L53.4325 18.0349C53.1319 17.7418 52.9194 17.3705 52.8188 16.9629C52.7183 16.5553 52.7338 16.1277 52.8636 15.7284C52.9934 15.3292 53.2323 14.9742 53.5533 14.7036C53.8743 14.4331 54.2646 14.2577 54.68 14.1974L63.18 12.9624L66.985 5.25489Z" fill="url(#paint1_linear_1_106)"/>
<path d="M115.985 5.25489C116.171 4.87849 116.458 4.56158 116.815 4.33999C117.171 4.11841 117.583 4.00098 118.002 4.00098C118.422 4.00098 118.834 4.11841 119.19 4.33999C119.547 4.56158 119.834 4.87849 120.02 5.25489L123.822 12.9599L132.325 14.1949C132.741 14.2548 133.131 14.4299 133.453 14.7003C133.774 14.9707 134.013 15.3257 134.143 15.725C134.273 16.1243 134.289 16.552 134.189 16.9598C134.088 17.3676 133.876 17.7391 133.575 18.0324L127.42 24.0324L128.872 32.4999C128.943 32.9136 128.897 33.3388 128.738 33.7274C128.58 34.1161 128.316 34.4527 127.976 34.6992C127.637 34.9458 127.235 35.0924 126.816 35.1225C126.398 35.1527 125.979 35.0652 125.607 34.8699L118.002 30.8749L110.397 34.8749C110.026 35.0706 109.606 35.1583 109.187 35.128C108.768 35.0977 108.366 34.9506 108.026 34.7034C107.686 34.4562 107.422 34.1188 107.264 33.7293C107.106 33.3399 107.061 32.914 107.132 32.4999L108.582 24.0324L102.432 18.0349C102.132 17.7418 101.919 17.3705 101.819 16.9629C101.718 16.5553 101.734 16.1277 101.864 15.7284C101.993 15.3292 102.232 14.9742 102.553 14.7036C102.874 14.4331 103.265 14.2577 103.68 14.1974L112.18 12.9624L115.985 5.25489Z" fill="url(#paint2_linear_1_106)"/>
<path d="M164.985 5.25489C165.171 4.87849 165.458 4.56158 165.815 4.33999C166.171 4.11841 166.583 4.00098 167.002 4.00098C167.422 4.00098 167.834 4.11841 168.19 4.33999C168.547 4.56158 168.834 4.87849 169.02 5.25489L172.822 12.9599L181.325 14.1949C181.741 14.2548 182.131 14.4299 182.453 14.7003C182.774 14.9707 183.013 15.3257 183.143 15.725C183.273 16.1243 183.289 16.552 183.189 16.9598C183.088 17.3676 182.876 17.7391 182.575 18.0324L176.42 24.0324L177.872 32.4999C177.943 32.9136 177.897 33.3388 177.738 33.7274C177.58 34.1161 177.316 34.4527 176.976 34.6992C176.637 34.9458 176.235 35.0924 175.816 35.1225C175.398 35.1527 174.979 35.0652 174.607 34.8699L167.002 30.8749L159.397 34.8749C159.026 35.0706 158.606 35.1583 158.187 35.128C157.768 35.0977 157.366 34.9506 157.026 34.7034C156.686 34.4562 156.422 34.1188 156.264 33.7293C156.106 33.3399 156.061 32.914 156.132 32.4999L157.582 24.0324L151.432 18.0349C151.132 17.7418 150.919 17.3705 150.819 16.9629C150.718 16.5553 150.734 16.1277 150.864 15.7284C150.993 15.3292 151.232 14.9742 151.553 14.7036C151.874 14.4331 152.265 14.2577 152.68 14.1974L161.18 12.9624L164.985 5.25489Z" fill="url(#paint3_linear_1_106)"/>
<path d="M213.985 5.25489C214.171 4.87849 214.458 4.56158 214.815 4.33999C215.171 4.11841 215.583 4.00098 216.002 4.00098C216.422 4.00098 216.834 4.11841 217.19 4.33999C217.547 4.56158 217.834 4.87849 218.02 5.25489L221.822 12.9599L230.325 14.1949C230.741 14.2548 231.131 14.4299 231.453 14.7003C231.774 14.9707 232.013 15.3257 232.143 15.725C232.273 16.1243 232.289 16.552 232.189 16.9598C232.088 17.3676 231.876 17.7391 231.575 18.0324L225.42 24.0324L226.872 32.4999C226.943 32.9136 226.897 33.3388 226.738 33.7274C226.58 34.1161 226.316 34.4527 225.976 34.6992C225.637 34.9458 225.235 35.0924 224.816 35.1225C224.398 35.1527 223.979 35.0652 223.607 34.8699L216.002 30.8749L208.397 34.8749C208.026 35.0706 207.606 35.1583 207.187 35.128C206.768 35.0977 206.366 34.9506 206.026 34.7034C205.686 34.4562 205.422 34.1188 205.264 33.7293C205.106 33.3399 205.061 32.914 205.132 32.4999L206.582 24.0324L200.432 18.0349C200.132 17.7418 199.919 17.3705 199.819 16.9629C199.718 16.5553 199.734 16.1277 199.864 15.7284C199.993 15.3292 200.232 14.9742 200.553 14.7036C200.874 14.4331 201.265 14.2577 201.68 14.1974L210.18 12.9624L213.985 5.25489Z" fill="url(#paint4_linear_1_106)"/>
<defs>
<linearGradient id="paint0_linear_1_106" x1="36.25" y1="35.8299" x2="2.8125" y2="4.29989" gradientUnits="userSpaceOnUse">
<stop stop-color="#FF6F47"/>
<stop offset="1" stop-color="#FFCD0F"/>
</linearGradient>
<linearGradient id="paint1_linear_1_106" x1="85.25" y1="35.8299" x2="51.8125" y2="4.29989" gradientUnits="userSpaceOnUse">
<stop stop-color="#FF6F47"/>
<stop offset="1" stop-color="#FFCD0F"/>
</linearGradient>
<linearGradient id="paint2_linear_1_106" x1="134.25" y1="35.8299" x2="100.812" y2="4.29989" gradientUnits="userSpaceOnUse">
<stop stop-color="#FF6F47"/>
<stop offset="1" stop-color="#FFCD0F"/>
</linearGradient>
<linearGradient id="paint3_linear_1_106" x1="183.25" y1="35.8299" x2="149.812" y2="4.29989" gradientUnits="userSpaceOnUse">
<stop stop-color="#FF6F47"/>
<stop offset="1" stop-color="#FFCD0F"/>
</linearGradient>
<linearGradient id="paint4_linear_1_106" x1="232.25" y1="35.8299" x2="198.812" y2="4.29989" gradientUnits="userSpaceOnUse">
<stop stop-color="#FF6F47"/>
<stop offset="1" stop-color="#FFCD0F"/>
</linearGradient>
</defs>
</svg>
